# xmcd
#
# Track frame offsets:
#	150
#	17817
#	32508
#	46862
#	64720
#	76294
#	97129
#	112831
#	130927
#	162334
#	175796
#	196502
#
# Disc length: 2951 seconds
#
# Revision: 0
# Processed by: cddbd v1.5.2PL0 Copyright (c) Steve Scherf et al.
# Submitted via: dBpowerAMP V4.0
#
DISCID=8c0b850c
DTITLE=Rev. Dan Smith - Unfinished Business
DYEAR=2005
DGENRE=Blues
TTITLE0=Do You Know that You're Born Again
TTITLE1=Me and Jesus
TTITLE2=Melodies of Heaven
TTITLE3=When Man Sinned
TTITLE4=Thy Will Be Done
TTITLE5=It Did Rain
TTITLE6=Everyday Will Be Sunday
TTITLE7=Babylon is Falling Down
TTITLE8=(In the Upper Room) At the Table of the Lord
TTITLE9=In Your Veins
TTITLE10=Heaven's Ladder
TTITLE11=Sit Down At My Right Hand
EXTD=
EXTT0=
EXTT1=
EXTT2=
EXTT3=
EXTT4=
EXTT5=
EXTT6=
EXTT7=
EXTT8=
EXTT9=
EXTT10=
EXTT11=
PLAYORDER=
